PathFileType	4	(X/Y/Z)	9_coords_data.trc
DataRate	CameraRate	NumFrames	NumMarkers	Units	OrigDataRate	OrigDataStartFrame	OrigNumFrames
30.0	30.0	8	21	m	30.0	31	41
Frame#	Time	THUMB_TIP	THUMB_IP	THUMB_MCP	THUMB_CMC	INDEX_TIP	INDEX_DIP	INDEX_PIP	INDEX_MCP	MIDDLE_TIP	MIDDLE_DIP	MIDDLE_PIP	MIDDLE_MCP	RING_TIP	RING_DIP	RING_PIP	RING_MCP	PINKY_TIP	PINKY_DIP	PINKY_PIP	PINKY_MCP	WRIST
X1	Y1	Z1	X2	Y2	Z2	X3	Y3	Z3	X4	Y4	Z4	X5	Y5	Z5	X6	Y6	Z6	X7	Y7	Z7	X8	Y8	Z8	X9	Y9	Z9	X10	Y10	Z10	X11	Y11	Z11	X12	Y12	Z12	X13	Y13	Z13	X14	Y14	Z14	X15	Y15	Z15	X16	Y16	Z16	X17	Y17	Z17	X18	Y18	Z18	X19	Y19	Z19	X20	Y20	Z20	X21	Y21	Z21
29	0.9999999999999956	0.5541106537120707	-0.052910513264871506	-0.12739245008358957	0.5344700080878785	-0.05004893383056197	-0.1158141772155824	0.5066420465213685	-0.04709018740610493	-0.10218808552909314	0.4855825507094741	-0.03257459173468935	-0.06564105940585319	0.5963351587971563	-0.0012474933079492656	-0.1402747439158593	0.5786644380007038	0.0016865189331783936	-0.13760319030368284	0.5542991325434614	0.005294553218504805	-0.13257091332688697	0.517861959158313	-0.0054771051644512125	-0.1133370924537081	0.6078180559681259	0.02453844926800086	-0.12260767939460693	0.5901178487011167	0.02375679145984122	-0.11885379157317993	0.5617773019155154	0.024270880003251283	-0.11207450909915034	0.5230315281277021	0.008772161919458177	-0.09611510208188584	0.6060151106883943	0.029637141937510658	-0.09723344638458731	0.5886414294677096	0.029849920858763812	-0.09242616794739456	0.564335241127592	0.03035880697560911	-0.08702892584657895	0.5287607923760016	0.014617681248976111	-0.07601092281160005	0.5972661863103906	0.02409862631763615	-0.05467825759778533	0.5806624342390286	0.027003775854044232	-0.05169907594440304	0.5597660235280912	0.02773637847571153	-0.04979767335721941	0.5277688629232014	0.011161637648529288	-0.05132840218252466	0.4622830810018608	-0.023011742144276925	-0.051989820119430985
30	1.0333333333333288	0.5579901859076776	-0.05233159830073664	-0.12175680721382343	0.5371461125965753	-0.050235451909611206	-0.11231589740023229	0.5084871895889037	-0.04744347063586252	-0.100496803839075	0.4860015703470746	-0.03239340604763119	-0.06503157462507514	0.5968950118997721	-0.0026045616673782135	-0.13776145542125284	0.5792543612375741	0.0010541654725126914	-0.13591181763776172	0.5548434074033467	0.005430909544016926	-0.13179365333363657	0.5181061718541125	-0.005111686877682153	-0.11300894468832451	0.6081272578371653	0.024547941057865064	-0.12076869342936902	0.5903354638152457	0.02406958360184419	-0.117418583039269	0.561862932739751	0.024947546236586682	-0.1112579251387702	0.5229393248573474	0.009408315918744137	-0.09577784143273216	0.6059642596013279	0.02954171538624495	-0.09561125551794092	0.5885097148718847	0.030213175364306788	-0.09115165802649261	0.5641262485206807	0.03119058498743421	-0.08618464502788659	0.5283884477039882	0.015528074246709767	-0.0755914309696748	0.5971260045030978	0.022292260488126936	-0.05319443194977136	0.580648812660765	0.02598777699984367	-0.05039348448461134	0.5597782649261563	0.027577498960639657	-0.048748783799141826	0.5273162300088013	0.012004240305173552	-0.05088732415985209	0.462283081001861	-0.023011742144276925	-0.051989820119430985
31	1.0666666666666622	0.5606014398951484	-0.05099946193646809	-0.11742250195999765	0.5389266503895466	-0.0499269794966225	-0.10986913970838591	0.5097061386390136	-0.04744747437564312	-0.09943679829372726	0.48625517665863716	-0.03224549705282043	-0.06466838924655738	0.5970710257559704	-0.003415780730244178	-0.1363374732389423	0.5794864495150555	0.0007151759278080094	-0.1350267957359908	0.5550784361341057	0.005578861218848763	-0.13147668571162602	0.5182541984724186	-0.004836478630719454	-0.11279160314682074	0.6082595077535317	0.024623160982083614	-0.11966159158574174	0.5904197926927083	0.02433555688790401	-0.11655323986277877	0.5618757317268339	0.02543549217570884	-0.11077082895217322	0.5228739975749647	0.009840517013961825	-0.0955455406510799	0.6060059043240843	0.02907608393755745	-0.094432736624396	0.588505998682396	0.030133037076006453	-0.09023319467376245	0.5640807850001961	0.031540436341905176	-0.08558473870589245	0.5281576597843973	0.016084162660493284	-0.07532055278516125	0.5971786082093297	0.020195822383156536	-0.052003490695352705	0.580834550776636	0.024533138754540218	-0.049346523753266314	0.5600190344248426	0.026880988575429532	-0.04792740458040978	0.527091839199105	0.012408318662784135	-0.05061535754982227	0.4622830810018609	-0.023011742144276925	-0.051989820119430985
33	1.1000000000000008	0.5622612931542367	-0.04909146402926412	-0.11426046373529603	0.5400533019339802	-0.049266987658700634	-0.1083634884583834	0.5104584499057198	-0.047134093349787354	-0.09896053704447183	0.4863524303753428	-0.03216852877389187	-0.0645392979713969	0.5970072280634295	-0.0035309889904509006	-0.1358183689208704	0.5794649694983869	0.0008495393981795551	-0.1347790732586115	0.5550688002486412	0.00593895685196133	-0.13147232426316197	0.5183646664074084	-0.004589924950921809	-0.11261535470424844	0.6082497800933988	0.024996042427938958	-0.11915271647677844	0.5903942737102887	0.024761961355083684	-0.11613177327074964	0.5618261392812293	0.02590981301726447	-0.11047901449252295	0.522870032375944	0.010116754873171652	-0.09534134722701304	0.6061839138575192	0.028357781699156925	-0.09355014273938034	0.5886650803431471	0.02973054778287254	-0.08952447688450449	0.5642246332828662	0.031486858890079295	-0.08507926622714423	0.5281071937803933	0.016302819731083273	-0.07509446013972909	0.5974781662086948	0.01753940424232958	-0.05111352775218825	0.5812819592678949	0.02242859731519231	-0.048509939492294096	0.5605519259884449	0.025503825339045827	-0.04723686768198776	0.5271178741732315	0.012352150105841009	-0.05041193756750928	0.462283081001861	-0.023011742144276925	-0.051989820119430985
34	1.1333333333333342	0.5633827273371446	-0.04718795216452043	-0.1115873851221571	0.5408679836439577	-0.048602573011055306	-0.10721872808701993	0.5109853344867606	-0.046784221214113964	-0.0987016349156129	0.48639584173290595	-0.03211280188864385	-0.06449642623207552	0.5968493343673971	-0.003526985747097977	-0.13571910654416297	0.5793408261175764	0.0010195709178101309	-0.13483538636291653	0.5549590970429071	0.006243755895058545	-0.13163397860180304	0.5184391920508618	-0.00440874961868476	-0.11249091824950685	0.608200451649462	0.02533325001499509	-0.11895314406614454	0.590340163807053	0.02510699467862798	-0.11595999744276286	0.5617660152943557	0.026253198486613782	-0.11033738207223676	0.5228861980941911	0.010277008984054148	-0.09519574727079971	0.6064083665370935	0.02741775720160433	-0.09288290170075852	0.5888864238996832	0.029099098762757625	-0.08899000859073825	0.5644468613591614	0.031207771234227133	-0.08469567951205859	0.5281285552432695	0.016356706028894163	-0.07494132985975888	0.5977849378085554	0.01481873652614607	-0.050463357383007446	0.5817451961471365	0.020208256628077126	-0.047878834118298075	0.5611205928410001	0.023959072216763633	-0.04670873160818334	0.5272371372999405	0.012126684990455772	-0.05028497322806058	0.4622830810018609	-0.023011742144276925	-0.051989820119430985
35	1.1666666666666674	0.5640930638100456	-0.045582247024897105	-0.10932302037766245	0.5414546219867967	-0.04809893480777394	-0.1062952762638219	0.5113487277252879	-0.046500950740849145	-0.09855566531515614	0.4864074980680908	-0.03207616460030249	-0.06450055398093146	0.5966369104512451	-0.0035407440174290983	-0.13592285435196577	0.579156198801238	0.0011237544810746014	-0.13510604717351704	0.5547922026127238	0.006433706215320023	-0.13191074823506915	0.5184829679683255	-0.004304761086771358	-0.11241816263079502	0.608137873198499	0.02552487913877599	-0.11899151695386156	0.5902796772483054	0.025298098988507878	-0.11598595408346013	0.5617128341796974	0.026440147599311237	-0.11032549897242105	0.5229156227982021	0.010331917595575169	-0.0951120432122623	0.6066663906194832	0.026206130147048867	-0.09239557250692065	0.5891569655735229	0.02822048529731669	-0.08860579574720406	0.5647345784862474	0.030721891129576684	-0.08442608800363904	0.5282001990215838	0.01628393668319128	-0.07486024133248281	0.5980521471957405	0.012151476491675917	-0.05007809316966372	0.5821792844523598	0.01800756678923321	-0.04747839419542588	0.5616749444885246	0.02238227572051077	-0.04636215792380871	0.5274127142664524	0.011797314727501451	-0.050227598647219374	0.4622830810018609	-0.023011742144276925	-0.051989820119430985
36	1.2000000000000006	0.5645411595253252	-0.044583167976110616	-0.10739638196814427	0.5418911692173867	-0.04792908759963954	-0.10545144985540356	0.5116106709299197	-0.046390973158533244	-0.09841258436238731	0.4864094441446951	-0.032056282930088	-0.06451118579869675	0.5964051635017661	-0.003707786491094489	-0.1363120608242968	0.578952410261516	0.0010612406107933792	-0.13550102146865423	0.5546127281070218	0.006449731465138275	-0.1322523491350941	0.5185010724337223	-0.00428974415324912	-0.11239666778251572	0.6080873321885185	0.02545993399738178	-0.11919549860413214	0.5902344069232921	0.025261726637279547	-0.11615678616024344	0.5616839360880679	0.02644479391959753	-0.11042263261394636	0.5229509840325369	0.010291929191049043	-0.09509320643012709	0.6069372265061952	0.024672712504095196	-0.09205118211659846	0.5894586109261544	0.027076025967135542	-0.08834684927470615	0.5650727890446882	0.030046726379385102	-0.08426192464552773	0.5282999472270901	0.01612204956395069	-0.0748501068485441	0.5982402744206612	0.009654824929959172	-0.04997967182188845	0.5825488598188251	0.015960632179389256	-0.04733084137689658	0.562175139214228	0.02090784910099952	-0.04621344598745214	0.5276078492262182	0.011429990139459667	-0.050232911547698045	0.462283081001861	-0.023011742144276925	-0.051989820119430985
37	1.2333333333333338	0.5648850991211622	-0.0445011774451779	-0.10573416329215368	0.5422491609691229	-0.048268807377020995	-0.10454283266057762	0.5118332108638645	-0.046562923757576535	-0.09815691532073201	0.4864240502430073	-0.032050677788403426	-0.06448705827509404	0.5961882535861026	-0.0041633593526526624	-0.13676594919750684	0.5787715404556238	0.0007312300814292794	-0.13592863324615656	0.5544668650828829	0.006233196294169963	-0.1326088507503378	0.5184983867526979	-0.004375471801351116	-0.11242566909208379	0.6080733055670082	0.02502671631922404	-0.11949140202214531	0.5902254379649681	0.0249236831344668	-0.11641845454083671	0.5616963612648364	0.026240952895626335	-0.11060759117862123	0.5229845973175931	0.010167362931314927	-0.09514192084875506	0.6071912343868833	0.022768478539764936	-0.09181101823461368	0.5897677347838767	0.025647584965410197	-0.08818715182236281	0.5654444314925239	0.029198936385428587	-0.08419405789804812	0.5284054593256078	0.015908406272891695	-0.07490981403297392	0.5983147078540464	0.007444252378771221	-0.050187690597986556	0.582825517369274	0.014198839593965285	-0.04745629357837022	0.5625890557061669	0.019667522033030904	-0.04627682304535419	0.5277867575781431	0.011091588876812275	-0.050293894927736615	0.4622830810018608	-0.023011742144276925	-0.051989820119430985
